<mxfile host="app.diagrams.net" modified="2023-12-24T00:22:09.139Z" agent="Mozilla/5.0 (Windows NT 10.0; Win64; x64) AppleWebKit/537.36 (KHTML, like Gecko) Chrome/120.0.0.0 Safari/537.36" etag="tIpzSNlRdoZjM0_j8glD" version="22.1.11" type="github">
  <diagram name="Page-1" id="nEXBlGLzMKb_g1DaliSo">
    <mxGraphModel dx="794" dy="1546" grid="1" gridSize="10" guides="1" tooltips="1" connect="1" arrows="1" fold="1" page="1" pageScale="1" pageWidth="850" pageHeight="1100" math="0" shadow="0">
      <root>
        <mxCell id="0" />
        <mxCell id="1" parent="0" />
        <mxCell id="VP0QisBsJg34D5dglswW-1" value="" style="rounded=0;whiteSpace=wrap;html=1;" vertex="1" parent="1">
          <mxGeometry x="80" y="40" width="530" height="240" as="geometry" />
        </mxCell>
        <mxCell id="VP0QisBsJg34D5dglswW-6" value="" style="rounded=0;whiteSpace=wrap;html=1;" vertex="1" parent="1">
          <mxGeometry x="120" y="90" width="130" height="170" as="geometry" />
        </mxCell>
        <mxCell id="VP0QisBsJg34D5dglswW-2" value="" style="outlineConnect=0;dashed=0;verticalLabelPosition=bottom;verticalAlign=top;align=center;html=1;shape=mxgraph.aws3.rds_db_instance;fillColor=#2E73B8;gradientColor=none;" vertex="1" parent="1">
          <mxGeometry x="160" y="110" width="49.5" height="66" as="geometry" />
        </mxCell>
        <mxCell id="VP0QisBsJg34D5dglswW-4" value="RDS Database Instance" style="text;html=1;strokeColor=none;fillColor=none;align=center;verticalAlign=middle;whiteSpace=wrap;rounded=0;" vertex="1" parent="1">
          <mxGeometry x="154.75" y="190" width="60" height="30" as="geometry" />
        </mxCell>
        <mxCell id="VP0QisBsJg34D5dglswW-7" value="" style="rounded=0;whiteSpace=wrap;html=1;" vertex="1" parent="1">
          <mxGeometry x="390" y="90" width="130" height="170" as="geometry" />
        </mxCell>
        <mxCell id="VP0QisBsJg34D5dglswW-3" value="" style="outlineConnect=0;dashed=0;verticalLabelPosition=bottom;verticalAlign=top;align=center;html=1;shape=mxgraph.aws3.rds_db_instance;fillColor=#2E73B8;gradientColor=none;" vertex="1" parent="1">
          <mxGeometry x="430.25" y="110" width="49.5" height="66" as="geometry" />
        </mxCell>
        <mxCell id="VP0QisBsJg34D5dglswW-5" value="RDS Database Instance" style="text;html=1;strokeColor=none;fillColor=none;align=center;verticalAlign=middle;whiteSpace=wrap;rounded=0;" vertex="1" parent="1">
          <mxGeometry x="419.75" y="190" width="60" height="30" as="geometry" />
        </mxCell>
        <mxCell id="VP0QisBsJg34D5dglswW-8" value="Availability Zone 1" style="text;html=1;strokeColor=none;fillColor=none;align=center;verticalAlign=middle;whiteSpace=wrap;rounded=0;" vertex="1" parent="1">
          <mxGeometry x="154.75" y="230" width="60" height="30" as="geometry" />
        </mxCell>
        <mxCell id="VP0QisBsJg34D5dglswW-9" value="Availability Zone 2" style="text;html=1;strokeColor=none;fillColor=none;align=center;verticalAlign=middle;whiteSpace=wrap;rounded=0;" vertex="1" parent="1">
          <mxGeometry x="420" y="230" width="60" height="30" as="geometry" />
        </mxCell>
        <mxCell id="VP0QisBsJg34D5dglswW-11" value="&lt;b&gt;&lt;font style=&quot;font-size: 24px;&quot;&gt;AWS&lt;/font&gt;&lt;/b&gt;" style="text;html=1;strokeColor=none;fillColor=none;align=center;verticalAlign=middle;whiteSpace=wrap;rounded=0;" vertex="1" parent="1">
          <mxGeometry x="480" y="50" width="60" height="30" as="geometry" />
        </mxCell>
        <mxCell id="VP0QisBsJg34D5dglswW-16" value="&lt;b&gt;&lt;font style=&quot;font-size: 25px;&quot;&gt;Relational Database Service (RDS) Multi-Availability Zones (AZ)&lt;/font&gt;&lt;/b&gt;" style="text;html=1;strokeColor=none;fillColor=none;align=center;verticalAlign=middle;whiteSpace=wrap;rounded=0;" vertex="1" parent="1">
          <mxGeometry x="9" y="-60" width="591" height="30" as="geometry" />
        </mxCell>
      </root>
    </mxGraphModel>
  </diagram>
</mxfile>
